<svg width="115" height="48" viewBox="0 0 115 48" fill="none" xmlns="http://www.w3.org/2000/svg">
<path d="M8.48483 0.595337V27.7598H19.1545V34.0504H0.338623V0.595337H8.48483Z" fill="#172C4F"/>
<path d="M43.5465 7.1236H31.2085V13.8895H42.1156V20.1801H31.2085V27.5222H43.5465V34.0504H23.0623V0.595337H43.5465V7.1236Z" fill="#172C4F"/>
<path d="M69.6547 28.14H57.1741L55.1732 34.0504H46.647L58.7475 0.595337H68.1822L80.2828 34.0504H71.6616L69.6547 28.14ZM63.4144 9.60066L59.3175 21.8493H67.5588L63.4144 9.60066Z" fill="#172C4F"/>
<path d="M114.001 17.3229C114.001 27.2371 107.144 34.0504 96.4739 34.0504H83.9458V0.595337H96.4739C107.144 0.595337 114.001 7.36121 114.001 17.3229ZM95.9454 26.9935C102.091 26.9935 105.713 23.465 105.713 17.3169C105.713 11.1689 102.091 7.54535 95.9454 7.54535H92.0861V26.9876H95.9454V26.9935Z" fill="#172C4F"/>
<path d="M39.4672 46.0735H36.0532L35.4654 47.7426H34.0701L36.9913 39.5749H38.541L41.4622 47.7426H40.055L39.4672 46.0735ZM37.7632 41.1906L36.4272 44.9805H39.0932L37.7632 41.1906Z" fill="#172C4F"/>
<path d="M52.9348 43.2421C52.9348 45.7548 51.2188 47.2933 48.6064 47.2933H45.9404V39.1374H48.6064C51.2188 39.1315 52.9348 40.7175 52.9348 43.2421ZM48.6064 46.2003C50.5301 46.2003 51.5632 45.0954 51.5632 43.2421C51.5632 41.3769 50.5301 40.2245 48.6064 40.2245H47.2823V46.2003H48.6064Z" fill="#172C4F"/>
<path d="M62.7552 39.5809H64.1624L61.0987 47.7367H59.549L56.4734 39.5809H57.9043L60.3209 46.3646L62.7552 39.5809Z" fill="#172C4F"/>
<path d="M68.5383 39.5809H69.8736V47.7367H68.5383V39.5809Z" fill="#172C4F"/>
<path d="M77.6869 47.8201C76.0541 47.8201 74.8013 46.9291 74.8013 45.4856H76.2322C76.2916 46.1569 76.7606 46.6974 77.6869 46.6974C78.625 46.6974 79.1534 46.1925 79.1534 45.4975C79.1534 43.5254 74.825 44.8025 74.825 41.7968C74.825 40.3652 75.965 39.4742 77.6275 39.4742C79.1891 39.4742 80.2934 40.2939 80.4062 41.6958H78.9278C78.8803 41.1434 78.3994 40.6385 77.5562 40.6147C76.7844 40.5909 76.1847 40.9652 76.1847 41.7552C76.1847 43.5967 80.5012 42.4502 80.5012 45.4322C80.5012 46.6499 79.5037 47.8201 77.6869 47.8201Z" fill="#172C4F"/>
<path d="M89.047 47.8197C86.7492 47.8197 84.8789 46.097 84.8789 43.6378C84.8789 41.1964 86.7433 39.4678 89.047 39.4678C91.3686 39.4678 93.2151 41.1904 93.2151 43.6378C93.2151 46.097 91.3745 47.8197 89.047 47.8197ZM89.047 46.6613C90.6679 46.6613 91.8376 45.4852 91.8376 43.6437C91.8376 41.8023 90.662 40.6499 89.047 40.6499C87.4261 40.6499 86.2564 41.8023 86.2564 43.6437C86.2564 45.4852 87.432 46.6613 89.047 46.6613Z" fill="#172C4F"/>
<path d="M100.784 39.5809C102.72 39.5809 103.67 40.6976 103.67 42.0223C103.67 42.9846 103.153 44.0182 101.782 44.3568L103.8 47.7367H102.203L100.327 44.4756H99.3057V47.7367H97.9697V39.5809H100.784ZM100.784 40.6739H99.3057V43.4063H100.784C101.829 43.4063 102.298 42.8302 102.298 42.0223C102.298 41.2025 101.829 40.6739 100.784 40.6739Z" fill="#172C4F"/>
<path d="M111.187 47.8201C109.554 47.8201 108.301 46.9291 108.301 45.4856H109.732C109.792 46.1569 110.261 46.6974 111.187 46.6974C112.125 46.6974 112.653 46.1925 112.653 45.4975C112.653 43.5254 108.325 44.8025 108.325 41.7968C108.325 40.3652 109.465 39.4742 111.128 39.4742C112.689 39.4742 113.793 40.2939 113.906 41.6958H112.428C112.38 41.1434 111.899 40.6385 111.056 40.6147C110.284 40.5909 109.685 40.9652 109.685 41.7552C109.685 43.5967 114.001 42.4502 114.001 45.4322C114.001 46.6499 113.004 47.8201 111.187 47.8201Z" fill="#172C4F"/>
</svg>
